<svg xmlns="http://www.w3.org/2000/svg" xmlns:xlink="http://www.w3.org/1999/xlink" width="1728" zoomAndPan="magnify" viewBox="0 0 1296 374.999991" height="500" preserveAspectRatio="xMidYMid meet" version="1.0"><defs><g/></defs><rect x="-129.6" width="1555.2" fill="#ffffff" y="-37.499999" height="449.999989" fill-opacity="1"/><rect x="-129.6" width="1555.2" fill="#ffffff" y="-37.499999" height="449.999989" fill-opacity="1"/><rect x="-129.6" width="1555.2" fill="#ffffff" y="-37.499999" height="449.999989" fill-opacity="1"/><path fill="#000000" d="M 1106.523438 222.019531 C 1106.445312 206.457031 1106.308594 181.007812 1106.25 165.46875 C 1106.171875 149.90625 1117.796875 143.488281 1131.066406 151.203125 C 1144.359375 158.914062 1166.492188 171.53125 1179.78125 179.222656 C 1193.054688 186.933594 1193.328125 199.648438 1180.136719 207.496094 C 1166.921875 215.347656 1144.613281 228.179688 1131.402344 236.027344 C 1118.207031 243.878906 1106.601562 237.578125 1106.523438 222.019531 Z M 1106.523438 222.019531 " fill-opacity="1" fill-rule="nonzero"/><path fill="#8cc640" d="M 1078.570312 182.125 C 1079.46875 127.378906 1093.546875 101.753906 1111.089844 89.371094 C 1120.894531 83.820312 1128.949219 82.777344 1136.476562 82.601562 C 1142.027344 82.464844 1147.359375 82.933594 1152.496094 83.859375 C 1168.804688 85.9375 1204.640625 96.730469 1238.75 128.242188 C 1220.617188 81.894531 1165.355469 50.246094 1114.71875 57.621094 C 1075.804688 63.273438 1042.027344 95.199219 1038.753906 164.839844 C 1035.949219 224.570312 1062.414062 262.5 1082.683594 257.300781 C 1080.507812 228.671875 1078.234375 201.632812 1078.570312 182.125 Z M 1078.570312 182.125 " fill-opacity="1" fill-rule="nonzero"/><path fill="#f15b26" d="M 1155.453125 249.273438 C 1107.757812 276.078125 1078.550781 276.84375 1059.023438 267.914062 C 1049.300781 262.226562 1044.320312 255.808594 1040.378906 249.390625 C 1037.460938 244.664062 1035.183594 239.835938 1033.402344 234.910156 C 1026.972656 219.761719 1018.226562 183.34375 1028.226562 137.976562 C 997.371094 177.003906 997.917969 240.738281 1029.792969 280.789062 C 1054.300781 311.554688 1098.859375 324.664062 1160.589844 292.402344 C 1213.558594 264.714844 1232.949219 222.726562 1218.226562 207.832031 C 1194.660156 224.136719 1172.46875 239.71875 1155.453125 249.273438 Z M 1155.453125 249.273438 " fill-opacity="1" fill-rule="nonzero"/><path fill="#29aae2" d="M 1175.546875 149.257812 C 1222.265625 177.730469 1237.261719 202.828125 1239.046875 224.253906 C 1238.867188 235.539062 1235.691406 243.015625 1232.066406 249.609375 C 1229.378906 254.472656 1226.28125 258.828125 1222.890625 262.8125 C 1212.855469 275.84375 1185.429688 301.332031 1141.007812 314.832031 C 1190.113281 322.601562 1245.335938 290.914062 1264.589844 243.445312 C 1279.371094 206.988281 1268.941406 161.679688 1210.582031 123.632812 C 1160.511719 91 1114.445312 94.667969 1108.679688 114.800781 C 1134.4375 127.398438 1158.886719 139.113281 1175.546875 149.257812 Z M 1175.546875 149.257812 " fill-opacity="1" fill-rule="nonzero"/><g fill="#000000" fill-opacity="1"><g transform="translate(42.993898, 249.934713)"><g><path d="M 40.609375 0 L 4.140625 0 L 34.28125 -157.1875 L 70.734375 -157.1875 Z M 40.609375 0 "/></g></g></g><g fill="#000000" fill-opacity="1"><g transform="translate(101.041561, 249.934713)"><g><path d="M 39.296875 0 L 2.84375 0 L 24.890625 -113.515625 L 61.125 -113.515625 Z M 65.0625 -130.984375 L 27.296875 -130.984375 L 32.96875 -160.234375 L 70.734375 -160.234375 Z M 65.0625 -130.984375 "/></g></g></g><g fill="#000000" fill-opacity="1"><g transform="translate(156.688557, 249.934713)"><g><path d="M 91.6875 -116.359375 C 100.570312 -116.359375 108.757812 -114.03125 116.25 -109.375 C 123.75 -104.71875 129.71875 -98.347656 134.15625 -90.265625 C 138.59375 -82.191406 140.8125 -73.28125 140.8125 -63.53125 C 140.8125 -51.738281 138.007812 -40.75 132.40625 -30.5625 C 126.800781 -20.375 119.125 -12.257812 109.375 -6.21875 C 99.625 -0.175781 88.851562 2.84375 77.0625 2.84375 C 68.332031 2.84375 60.945312 1.316406 54.90625 -1.734375 C 48.863281 -4.796875 44.097656 -8.726562 40.609375 -13.53125 L 37.984375 0 L 4.140625 0 L 34.5 -157.1875 L 70.734375 -157.1875 L 61.34375 -106.75 C 69.351562 -113.15625 79.46875 -116.359375 91.6875 -116.359375 Z M 74.4375 -29.46875 C 80.550781 -29.46875 85.898438 -30.921875 90.484375 -33.828125 C 95.078125 -36.742188 98.570312 -40.601562 100.96875 -45.40625 C 103.375 -50.207031 104.578125 -55.226562 104.578125 -60.46875 C 104.578125 -67.019531 102.242188 -72.585938 97.578125 -77.171875 C 92.921875 -81.753906 86.957031 -84.046875 79.6875 -84.046875 C 73.570312 -84.046875 68.257812 -82.550781 63.75 -79.5625 C 59.238281 -76.582031 55.78125 -72.726562 53.375 -68 C 50.976562 -63.269531 49.78125 -58.285156 49.78125 -53.046875 C 49.78125 -46.492188 52.109375 -40.925781 56.765625 -36.34375 C 61.421875 -31.757812 67.3125 -29.46875 74.4375 -29.46875 Z M 74.4375 -29.46875 "/></g></g></g><g fill="#000000" fill-opacity="1"><g transform="translate(295.267171, 249.934713)"><g><path d="M 87.109375 -116.359375 C 95.109375 -116.359375 102.3125 -114.644531 108.71875 -111.21875 C 115.125 -107.800781 120.144531 -102.925781 123.78125 -96.59375 C 127.414062 -90.269531 129.234375 -82.8125 129.234375 -74.21875 C 129.234375 -69.707031 128.875 -65.707031 128.15625 -62.21875 L 116.140625 0 L 79.6875 0 L 91.25 -60.03125 C 91.6875 -62.21875 91.90625 -64.257812 91.90625 -66.15625 C 91.90625 -71.53125 90.300781 -75.816406 87.09375 -79.015625 C 83.894531 -82.222656 79.601562 -83.828125 74.21875 -83.828125 C 68.113281 -83.828125 63.09375 -81.9375 59.15625 -78.15625 C 55.226562 -74.375 52.679688 -69.207031 51.515625 -62.65625 L 39.296875 0 L 2.84375 0 L 24.890625 -113.515625 L 58.5 -113.515625 L 56.765625 -104.578125 C 66.660156 -112.429688 76.773438 -116.359375 87.109375 -116.359375 Z M 87.109375 -116.359375 "/></g></g></g><g fill="#000000" fill-opacity="1"><g transform="translate(426.643781, 249.934713)"><g><path d="M 109.15625 -113.515625 L 143 -113.515625 L 121.15625 0 L 87.765625 0 L 89.71875 -10.265625 C 80.988281 -1.523438 69.566406 2.84375 55.453125 2.84375 C 46.578125 2.84375 38.390625 0.515625 30.890625 -4.140625 C 23.390625 -8.804688 17.421875 -15.175781 12.984375 -23.25 C 8.546875 -31.320312 6.328125 -40.238281 6.328125 -50 C 6.328125 -61.78125 9.128906 -72.765625 14.734375 -82.953125 C 20.335938 -93.140625 28.015625 -101.253906 37.765625 -107.296875 C 47.515625 -113.335938 58.285156 -116.359375 70.078125 -116.359375 C 78.804688 -116.359375 86.191406 -114.828125 92.234375 -111.765625 C 98.273438 -108.710938 103.039062 -104.785156 106.53125 -99.984375 Z M 67.453125 -29.46875 C 73.566406 -29.46875 78.878906 -30.957031 83.390625 -33.9375 C 87.898438 -36.925781 91.359375 -40.785156 93.765625 -45.515625 C 96.171875 -50.242188 97.375 -55.226562 97.375 -60.46875 C 97.375 -67.019531 95.039062 -72.585938 90.375 -77.171875 C 85.71875 -81.753906 79.753906 -84.046875 72.484375 -84.046875 C 66.515625 -84.046875 61.238281 -82.585938 56.65625 -79.671875 C 52.070312 -76.765625 48.578125 -72.910156 46.171875 -68.109375 C 43.773438 -63.304688 42.578125 -58.285156 42.578125 -53.046875 C 42.578125 -46.492188 44.90625 -40.925781 49.5625 -36.34375 C 54.21875 -31.757812 60.179688 -29.46875 67.453125 -29.46875 Z M 67.453125 -29.46875 "/></g></g></g><g fill="#000000" fill-opacity="1"><g transform="translate(563.912918, 249.934713)"><g><path d="M 63.53125 -81.4375 L 57.203125 -49.125 C 56.910156 -47.375 56.765625 -46.132812 56.765625 -45.40625 C 56.765625 -41.332031 58.144531 -38.128906 60.90625 -35.796875 C 63.675781 -33.472656 67.316406 -32.3125 71.828125 -32.3125 L 80.34375 -32.3125 L 74.015625 0 L 59.8125 0 C 46.863281 0 36.820312 -3.238281 29.6875 -9.71875 C 22.5625 -16.195312 19 -24.890625 19 -35.796875 C 19 -38.710938 19.359375 -42.132812 20.078125 -46.0625 L 27.078125 -81.4375 L 8.515625 -81.4375 L 14.84375 -113.515625 L 33.40625 -113.515625 L 39.296875 -143.65625 L 75.75 -143.65625 L 69.859375 -113.515625 L 96.0625 -113.515625 L 89.71875 -81.4375 Z M 63.53125 -81.4375 "/></g></g></g><g fill="#000000" fill-opacity="1"><g transform="translate(649.677224, 249.934713)"><g><path d="M 39.296875 0 L 2.84375 0 L 24.890625 -113.515625 L 61.125 -113.515625 Z M 65.0625 -130.984375 L 27.296875 -130.984375 L 32.96875 -160.234375 L 70.734375 -160.234375 Z M 65.0625 -130.984375 "/></g></g></g><g fill="#000000" fill-opacity="1"><g transform="translate(705.324247, 249.934713)"><g><path d="M 63.3125 2.84375 C 53.269531 2.84375 43.84375 0.625 35.03125 -3.8125 C 26.226562 -8.257812 19.171875 -14.554688 13.859375 -22.703125 C 8.546875 -30.859375 5.890625 -40.101562 5.890625 -50.4375 C 5.890625 -62.363281 8.835938 -73.382812 14.734375 -83.5 C 20.628906 -93.613281 28.816406 -101.617188 39.296875 -107.515625 C 49.773438 -113.410156 61.5625 -116.359375 74.65625 -116.359375 C 84.988281 -116.359375 94.554688 -114.101562 103.359375 -109.59375 C 112.171875 -105.082031 119.195312 -98.75 124.4375 -90.59375 C 129.675781 -82.445312 132.296875 -73.207031 132.296875 -62.875 C 132.296875 -50.789062 129.3125 -39.726562 123.34375 -29.6875 C 117.375 -19.644531 109.148438 -11.710938 98.671875 -5.890625 C 88.191406 -0.0664062 76.40625 2.84375 63.3125 2.84375 Z M 66.578125 -29.6875 C 72.691406 -29.6875 77.96875 -31.140625 82.40625 -34.046875 C 86.851562 -36.960938 90.273438 -40.785156 92.671875 -45.515625 C 95.078125 -50.242188 96.28125 -55.15625 96.28125 -60.25 C 96.28125 -66.800781 93.984375 -72.367188 89.390625 -76.953125 C 84.804688 -81.535156 78.878906 -83.828125 71.609375 -83.828125 C 65.640625 -83.828125 60.398438 -82.367188 55.890625 -79.453125 C 51.378906 -76.546875 47.957031 -72.726562 45.625 -68 C 43.300781 -63.269531 42.140625 -58.285156 42.140625 -53.046875 C 42.140625 -46.492188 44.429688 -40.960938 49.015625 -36.453125 C 53.597656 -31.941406 59.453125 -29.6875 66.578125 -29.6875 Z M 66.578125 -29.6875 "/></g></g></g><g fill="#000000" fill-opacity="1"><g transform="translate(834.954913, 249.934713)"><g><path d="M 87.109375 -116.359375 C 95.109375 -116.359375 102.3125 -114.644531 108.71875 -111.21875 C 115.125 -107.800781 120.144531 -102.925781 123.78125 -96.59375 C 127.414062 -90.269531 129.234375 -82.8125 129.234375 -74.21875 C 129.234375 -69.707031 128.875 -65.707031 128.15625 -62.21875 L 116.140625 0 L 79.6875 0 L 91.25 -60.03125 C 91.6875 -62.21875 91.90625 -64.257812 91.90625 -66.15625 C 91.90625 -71.53125 90.300781 -75.816406 87.09375 -79.015625 C 83.894531 -82.222656 79.601562 -83.828125 74.21875 -83.828125 C 68.113281 -83.828125 63.09375 -81.9375 59.15625 -78.15625 C 55.226562 -74.375 52.679688 -69.207031 51.515625 -62.65625 L 39.296875 0 L 2.84375 0 L 24.890625 -113.515625 L 58.5 -113.515625 L 56.765625 -104.578125 C 66.660156 -112.429688 76.773438 -116.359375 87.109375 -116.359375 Z M 87.109375 -116.359375 "/></g></g></g><g fill="#8dc641" fill-opacity="1"><g transform="translate(183.900956, 320.942178)"><g><path d="M 11.671875 -9 L 0.59375 -28.9375 L 9.046875 -28.9375 L 15.484375 -17.21875 L 21.765625 -28.9375 L 30.28125 -28.9375 L 19.296875 -9.046875 L 19.296875 0 L 11.671875 0 Z M 11.671875 -9 "/></g></g></g><g fill="#8dc641" fill-opacity="1"><g transform="translate(225.994084, 320.942178)"><g><path d="M 16.21875 0.296875 C 11.175781 0.296875 7.300781 -1.367188 4.59375 -4.703125 C 2.414062 -7.367188 1.328125 -10.535156 1.328125 -14.203125 C 1.328125 -18.085938 2.414062 -21.453125 4.59375 -24.296875 C 7.300781 -27.753906 11.175781 -29.484375 16.21875 -29.484375 C 21.238281 -29.484375 25.132812 -27.753906 27.90625 -24.296875 C 30.039062 -21.523438 31.109375 -18.160156 31.109375 -14.203125 C 31.109375 -10.503906 30.039062 -7.335938 27.90625 -4.703125 C 25.132812 -1.367188 21.238281 0.296875 16.21875 0.296875 Z M 10.90625 -7.921875 C 12.207031 -6.335938 13.976562 -5.546875 16.21875 -5.546875 C 18.46875 -5.546875 20.242188 -6.335938 21.546875 -7.921875 C 22.847656 -9.503906 23.5 -11.597656 23.5 -14.203125 C 23.5 -16.972656 22.851562 -19.238281 21.5625 -21 C 20.28125 -22.757812 18.5 -23.640625 16.21875 -23.640625 C 13.945312 -23.640625 12.164062 -22.757812 10.875 -21 C 9.59375 -19.238281 8.953125 -16.972656 8.953125 -14.203125 C 8.953125 -11.597656 9.601562 -9.503906 10.90625 -7.921875 Z M 10.90625 -7.921875 "/></g></g></g><g fill="#8dc641" fill-opacity="1"><g transform="translate(269.669882, 320.942178)"><g><path d="M 15.984375 0.296875 C 10.960938 0.296875 7.265625 -1.234375 4.890625 -4.296875 C 3.015625 -6.710938 2.078125 -9.765625 2.078125 -13.453125 L 2.078125 -28.9375 L 9.703125 -28.9375 L 9.703125 -13.3125 C 9.703125 -8.132812 11.796875 -5.546875 15.984375 -5.546875 C 20.066406 -5.546875 22.109375 -8.132812 22.109375 -13.3125 L 22.109375 -28.9375 L 29.921875 -28.9375 L 29.921875 -13.453125 C 29.921875 -9.722656 28.984375 -6.671875 27.109375 -4.296875 C 24.671875 -1.234375 20.960938 0.296875 15.984375 0.296875 Z M 15.984375 0.296875 "/></g></g></g><g fill="#8dc641" fill-opacity="1"><g transform="translate(312.900566, 320.942178)"><g><path d="M 27.40625 -18.703125 C 27.40625 -17.015625 26.96875 -15.347656 26.09375 -13.703125 C 25.21875 -12.054688 23.941406 -10.722656 22.265625 -9.703125 L 26.859375 0 L 18.453125 0 L 14.5 -8.40625 L 9.9375 -8.40625 L 9.9375 0 L 2.328125 0 L 2.328125 -28.9375 L 15.78125 -28.9375 C 19.601562 -28.9375 22.492188 -27.953125 24.453125 -25.984375 C 26.421875 -24.023438 27.40625 -21.597656 27.40625 -18.703125 Z M 9.9375 -14.203125 L 15.4375 -14.203125 C 16.71875 -14.203125 17.769531 -14.601562 18.59375 -15.40625 C 19.425781 -16.21875 19.84375 -17.296875 19.84375 -18.640625 C 19.84375 -19.992188 19.425781 -21.078125 18.59375 -21.890625 C 17.769531 -22.703125 16.71875 -23.109375 15.4375 -23.109375 L 9.9375 -23.109375 Z M 9.9375 -14.203125 "/></g></g></g><g fill="#8dc641" fill-opacity="1"><g transform="translate(352.619644, 320.942178)"><g/></g></g><g fill="#8dc641" fill-opacity="1"><g transform="translate(373.198043, 320.942178)"><g><path d="M 23.34375 -14.9375 C 24.757812 -14.40625 25.835938 -13.546875 26.578125 -12.359375 C 27.328125 -11.179688 27.703125 -9.929688 27.703125 -8.609375 C 27.703125 -5.972656 26.6875 -3.878906 24.65625 -2.328125 C 22.632812 -0.773438 19.675781 0 15.78125 0 L 2.328125 0 L 2.328125 -28.9375 L 14.390625 -28.9375 C 18.285156 -28.9375 21.242188 -28.148438 23.265625 -26.578125 C 25.296875 -25.015625 26.3125 -22.914062 26.3125 -20.28125 C 26.3125 -19.195312 26.0625 -18.117188 25.5625 -17.046875 C 25.070312 -15.972656 24.332031 -15.269531 23.34375 -14.9375 Z M 9.9375 -16.921875 L 14.390625 -16.921875 C 17.234375 -16.921875 18.65625 -17.910156 18.65625 -19.890625 C 18.65625 -20.878906 18.265625 -21.660156 17.484375 -22.234375 C 16.710938 -22.816406 15.679688 -23.109375 14.390625 -23.109375 L 9.9375 -23.109375 Z M 15.828125 -5.84375 C 18.660156 -5.84375 20.078125 -6.832031 20.078125 -8.8125 C 20.078125 -9.832031 19.722656 -10.53125 19.015625 -10.90625 C 18.304688 -11.289062 17.242188 -11.484375 15.828125 -11.484375 L 9.9375 -11.484375 L 9.9375 -5.84375 Z M 15.828125 -5.84375 "/></g></g></g><g fill="#8dc641" fill-opacity="1"><g transform="translate(412.966577, 320.942178)"><g><path d="M 16.21875 0.296875 C 11.175781 0.296875 7.300781 -1.367188 4.59375 -4.703125 C 2.414062 -7.367188 1.328125 -10.535156 1.328125 -14.203125 C 1.328125 -18.085938 2.414062 -21.453125 4.59375 -24.296875 C 7.300781 -27.753906 11.175781 -29.484375 16.21875 -29.484375 C 21.238281 -29.484375 25.132812 -27.753906 27.90625 -24.296875 C 30.039062 -21.523438 31.109375 -18.160156 31.109375 -14.203125 C 31.109375 -10.503906 30.039062 -7.335938 27.90625 -4.703125 C 25.132812 -1.367188 21.238281 0.296875 16.21875 0.296875 Z M 10.90625 -7.921875 C 12.207031 -6.335938 13.976562 -5.546875 16.21875 -5.546875 C 18.46875 -5.546875 20.242188 -6.335938 21.546875 -7.921875 C 22.847656 -9.503906 23.5 -11.597656 23.5 -14.203125 C 23.5 -16.972656 22.851562 -19.238281 21.5625 -21 C 20.28125 -22.757812 18.5 -23.640625 16.21875 -23.640625 C 13.945312 -23.640625 12.164062 -22.757812 10.875 -21 C 9.59375 -19.238281 8.953125 -16.972656 8.953125 -14.203125 C 8.953125 -11.597656 9.601562 -9.503906 10.90625 -7.921875 Z M 10.90625 -7.921875 "/></g></g></g><g fill="#8dc641" fill-opacity="1"><g transform="translate(456.642377, 320.942178)"><g><path d="M 16.21875 0.296875 C 11.175781 0.296875 7.300781 -1.367188 4.59375 -4.703125 C 2.414062 -7.367188 1.328125 -10.535156 1.328125 -14.203125 C 1.328125 -18.085938 2.414062 -21.453125 4.59375 -24.296875 C 7.300781 -27.753906 11.175781 -29.484375 16.21875 -29.484375 C 21.238281 -29.484375 25.132812 -27.753906 27.90625 -24.296875 C 30.039062 -21.523438 31.109375 -18.160156 31.109375 -14.203125 C 31.109375 -10.503906 30.039062 -7.335938 27.90625 -4.703125 C 25.132812 -1.367188 21.238281 0.296875 16.21875 0.296875 Z M 10.90625 -7.921875 C 12.207031 -6.335938 13.976562 -5.546875 16.21875 -5.546875 C 18.46875 -5.546875 20.242188 -6.335938 21.546875 -7.921875 C 22.847656 -9.503906 23.5 -11.597656 23.5 -14.203125 C 23.5 -16.972656 22.851562 -19.238281 21.5625 -21 C 20.28125 -22.757812 18.5 -23.640625 16.21875 -23.640625 C 13.945312 -23.640625 12.164062 -22.757812 10.875 -21 C 9.59375 -19.238281 8.953125 -16.972656 8.953125 -14.203125 C 8.953125 -11.597656 9.601562 -9.503906 10.90625 -7.921875 Z M 10.90625 -7.921875 "/></g></g></g><g fill="#8dc641" fill-opacity="1"><g transform="translate(500.318178, 320.942178)"><g><path d="M 15.4375 -13.453125 L 9.9375 -7.859375 L 9.9375 0 L 2.328125 0 L 2.328125 -28.9375 L 9.9375 -28.9375 L 9.9375 -17.859375 L 20.671875 -28.9375 L 30.28125 -28.9375 L 21.078125 -19.25 C 26.742188 -8.65625 30.171875 -2.238281 31.359375 0 L 22.75 0 Z M 15.4375 -13.453125 "/></g></g></g><g fill="#8dc641" fill-opacity="1"><g transform="translate(543.252111, 320.942178)"><g/></g></g><g fill="#8dc641" fill-opacity="1"><g transform="translate(563.83051, 320.942178)"><g><path d="M 2.328125 -28.9375 L 9.9375 -28.9375 L 9.9375 -5.84375 L 24.140625 -5.84375 L 24.140625 0 L 2.328125 0 Z M 2.328125 -28.9375 "/></g></g></g><g fill="#8dc641" fill-opacity="1"><g transform="translate(600.285242, 320.942178)"><g><path d="M 2.375 -28.9375 L 10 -28.9375 L 10 0 L 2.375 0 Z M 2.375 -28.9375 "/></g></g></g><g fill="#8dc641" fill-opacity="1"><g transform="translate(623.880626, 320.942178)"><g><path d="M 23.34375 -14.9375 C 24.757812 -14.40625 25.835938 -13.546875 26.578125 -12.359375 C 27.328125 -11.179688 27.703125 -9.929688 27.703125 -8.609375 C 27.703125 -5.972656 26.6875 -3.878906 24.65625 -2.328125 C 22.632812 -0.773438 19.675781 0 15.78125 0 L 2.328125 0 L 2.328125 -28.9375 L 14.390625 -28.9375 C 18.285156 -28.9375 21.242188 -28.148438 23.265625 -26.578125 C 25.296875 -25.015625 26.3125 -22.914062 26.3125 -20.28125 C 26.3125 -19.195312 26.0625 -18.117188 25.5625 -17.046875 C 25.070312 -15.972656 24.332031 -15.269531 23.34375 -14.9375 Z M 9.9375 -16.921875 L 14.390625 -16.921875 C 17.234375 -16.921875 18.65625 -17.910156 18.65625 -19.890625 C 18.65625 -20.878906 18.265625 -21.660156 17.484375 -22.234375 C 16.710938 -22.816406 15.679688 -23.109375 14.390625 -23.109375 L 9.9375 -23.109375 Z M 15.828125 -5.84375 C 18.660156 -5.84375 20.078125 -6.832031 20.078125 -8.8125 C 20.078125 -9.832031 19.722656 -10.53125 19.015625 -10.90625 C 18.304688 -11.289062 17.242188 -11.484375 15.828125 -11.484375 L 9.9375 -11.484375 L 9.9375 -5.84375 Z M 15.828125 -5.84375 "/></g></g></g><g fill="#8dc641" fill-opacity="1"><g transform="translate(663.649172, 320.942178)"><g><path d="M 27.40625 -18.703125 C 27.40625 -17.015625 26.96875 -15.347656 26.09375 -13.703125 C 25.21875 -12.054688 23.941406 -10.722656 22.265625 -9.703125 L 26.859375 0 L 18.453125 0 L 14.5 -8.40625 L 9.9375 -8.40625 L 9.9375 0 L 2.328125 0 L 2.328125 -28.9375 L 15.78125 -28.9375 C 19.601562 -28.9375 22.492188 -27.953125 24.453125 -25.984375 C 26.421875 -24.023438 27.40625 -21.597656 27.40625 -18.703125 Z M 9.9375 -14.203125 L 15.4375 -14.203125 C 16.71875 -14.203125 17.769531 -14.601562 18.59375 -15.40625 C 19.425781 -16.21875 19.84375 -17.296875 19.84375 -18.640625 C 19.84375 -19.992188 19.425781 -21.078125 18.59375 -21.890625 C 17.769531 -22.703125 16.71875 -23.109375 15.4375 -23.109375 L 9.9375 -23.109375 Z M 9.9375 -14.203125 "/></g></g></g><g fill="#8dc641" fill-opacity="1"><g transform="translate(703.36825, 320.942178)"><g><path d="M 30.8125 0 L 22.75 0 L 20.734375 -5.890625 L 10.4375 -5.890625 L 8.40625 0 L 0.34375 0 L 9.84375 -28.9375 L 21.328125 -28.9375 Z M 19.4375 -11.875 L 15.578125 -23.75 L 11.71875 -11.875 Z M 19.4375 -11.875 "/></g></g></g><g fill="#8dc641" fill-opacity="1"><g transform="translate(745.758138, 320.942178)"><g><path d="M 27.40625 -18.703125 C 27.40625 -17.015625 26.96875 -15.347656 26.09375 -13.703125 C 25.21875 -12.054688 23.941406 -10.722656 22.265625 -9.703125 L 26.859375 0 L 18.453125 0 L 14.5 -8.40625 L 9.9375 -8.40625 L 9.9375 0 L 2.328125 0 L 2.328125 -28.9375 L 15.78125 -28.9375 C 19.601562 -28.9375 22.492188 -27.953125 24.453125 -25.984375 C 26.421875 -24.023438 27.40625 -21.597656 27.40625 -18.703125 Z M 9.9375 -14.203125 L 15.4375 -14.203125 C 16.71875 -14.203125 17.769531 -14.601562 18.59375 -15.40625 C 19.425781 -16.21875 19.84375 -17.296875 19.84375 -18.640625 C 19.84375 -19.992188 19.425781 -21.078125 18.59375 -21.890625 C 17.769531 -22.703125 16.71875 -23.109375 15.4375 -23.109375 L 9.9375 -23.109375 Z M 9.9375 -14.203125 "/></g></g></g><g fill="#8dc641" fill-opacity="1"><g transform="translate(785.477216, 320.942178)"><g><path d="M 11.671875 -9 L 0.59375 -28.9375 L 9.046875 -28.9375 L 15.484375 -17.21875 L 21.765625 -28.9375 L 30.28125 -28.9375 L 19.296875 -9.046875 L 19.296875 0 L 11.671875 0 Z M 11.671875 -9 "/></g></g></g><g fill="#8dc641" fill-opacity="1"><g transform="translate(827.570347, 320.942178)"><g/></g></g><g fill="#8dc641" fill-opacity="1"><g transform="translate(848.148746, 320.942178)"><g><path d="M 30.8125 0 L 22.75 0 L 20.734375 -5.890625 L 10.4375 -5.890625 L 8.40625 0 L 0.34375 0 L 9.84375 -28.9375 L 21.328125 -28.9375 Z M 19.4375 -11.875 L 15.578125 -23.75 L 11.71875 -11.875 Z M 19.4375 -11.875 "/></g></g></g><g fill="#8dc641" fill-opacity="1"><g transform="translate(890.538634, 320.942178)"><g><path d="M 2.328125 0 L 2.328125 -28.9375 L 15.484375 -28.9375 C 19.304688 -28.9375 22.25 -27.945312 24.3125 -25.96875 C 26.375 -23.988281 27.40625 -21.5625 27.40625 -18.6875 C 27.40625 -15.820312 26.375 -13.382812 24.3125 -11.375 C 22.25 -9.363281 19.304688 -8.359375 15.484375 -8.359375 L 9.9375 -8.359375 L 9.9375 0 Z M 9.9375 -14.203125 L 15.4375 -14.203125 C 16.71875 -14.203125 17.769531 -14.601562 18.59375 -15.40625 C 19.425781 -16.21875 19.84375 -17.296875 19.84375 -18.640625 C 19.84375 -19.992188 19.425781 -21.078125 18.59375 -21.890625 C 17.769531 -22.703125 16.71875 -23.109375 15.4375 -23.109375 L 9.9375 -23.109375 Z M 9.9375 -14.203125 "/></g></g></g><g fill="#8dc641" fill-opacity="1"><g transform="translate(930.010423, 320.942178)"><g><path d="M 2.328125 0 L 2.328125 -28.9375 L 15.484375 -28.9375 C 19.304688 -28.9375 22.25 -27.945312 24.3125 -25.96875 C 26.375 -23.988281 27.40625 -21.5625 27.40625 -18.6875 C 27.40625 -15.820312 26.375 -13.382812 24.3125 -11.375 C 22.25 -9.363281 19.304688 -8.359375 15.484375 -8.359375 L 9.9375 -8.359375 L 9.9375 0 Z M 9.9375 -14.203125 L 15.4375 -14.203125 C 16.71875 -14.203125 17.769531 -14.601562 18.59375 -15.40625 C 19.425781 -16.21875 19.84375 -17.296875 19.84375 -18.640625 C 19.84375 -19.992188 19.425781 -21.078125 18.59375 -21.890625 C 17.769531 -22.703125 16.71875 -23.109375 15.4375 -23.109375 L 9.9375 -23.109375 Z M 9.9375 -14.203125 "/></g></g></g></svg>