<svg xmlns="http://www.w3.org/2000/svg" xmlns:xlink="http://www.w3.org/1999/xlink" width="1728" zoomAndPan="magnify" viewBox="0 0 1296 837.749997" height="1117" preserveAspectRatio="xMidYMid meet" version="1.0"><defs><g/></defs><path fill="#ffffff" d="M 1069.308594 447.179688 C 1069.246094 434.34375 1069.132812 413.351562 1069.082031 400.53125 C 1069.019531 387.695312 1078.632812 382.402344 1089.605469 388.765625 C 1100.59375 395.125 1118.898438 405.535156 1129.886719 411.878906 C 1140.859375 418.238281 1141.089844 428.726562 1130.179688 435.203125 C 1119.253906 441.675781 1100.804688 452.261719 1089.882812 458.738281 C 1078.972656 465.210938 1069.375 460.015625 1069.308594 447.179688 Z M 1069.308594 447.179688 " fill-opacity="1" fill-rule="nonzero"/><path fill="#8cc640" d="M 1046.195312 414.273438 C 1046.941406 369.113281 1058.578125 347.976562 1073.085938 337.761719 C 1081.191406 333.183594 1087.855469 332.324219 1094.078125 332.179688 C 1098.667969 332.066406 1103.074219 332.453125 1107.324219 333.214844 C 1120.808594 334.929688 1150.441406 343.832031 1178.648438 369.828125 C 1163.652344 331.59375 1117.957031 305.488281 1076.085938 311.574219 C 1043.910156 316.234375 1015.980469 342.570312 1013.273438 400.015625 C 1010.953125 449.285156 1032.839844 480.570312 1049.597656 476.28125 C 1047.800781 452.667969 1045.917969 430.363281 1046.195312 414.273438 Z M 1046.195312 414.273438 " fill-opacity="1" fill-rule="nonzero"/><path fill="#f15b26" d="M 1109.769531 469.664062 C 1070.332031 491.773438 1046.179688 492.402344 1030.035156 485.039062 C 1021.992188 480.34375 1017.875 475.050781 1014.617188 469.757812 C 1012.203125 465.859375 1010.324219 461.878906 1008.847656 457.8125 C 1003.53125 445.320312 996.300781 415.277344 1004.566406 377.855469 C 979.054688 410.050781 979.507812 462.621094 1005.863281 495.65625 C 1026.128906 521.035156 1062.972656 531.847656 1114.015625 505.238281 C 1157.816406 482.402344 1173.847656 447.761719 1161.675781 435.476562 C 1142.191406 448.929688 1123.839844 461.78125 1109.769531 469.664062 Z M 1109.769531 469.664062 " fill-opacity="1" fill-rule="nonzero"/><path fill="#29aae2" d="M 1126.386719 387.164062 C 1165.015625 410.648438 1177.414062 431.351562 1178.890625 449.023438 C 1178.742188 458.332031 1176.117188 464.5 1173.117188 469.9375 C 1170.898438 473.953125 1168.335938 477.546875 1165.53125 480.832031 C 1157.234375 491.578125 1134.554688 512.605469 1097.824219 523.738281 C 1138.429688 530.148438 1184.09375 504.007812 1200.011719 464.855469 C 1212.234375 434.78125 1203.609375 397.40625 1155.351562 366.023438 C 1113.953125 339.105469 1075.859375 342.132812 1071.09375 358.738281 C 1092.394531 369.132812 1112.605469 378.792969 1126.386719 387.164062 Z M 1126.386719 387.164062 " fill-opacity="1" fill-rule="nonzero"/><g fill="#ffffff" fill-opacity="1"><g transform="translate(191.495285, 470.271614)"><g><path d="M 33.515625 0 L 3.421875 0 L 28.28125 -129.71875 L 58.375 -129.71875 Z M 33.515625 0 "/></g></g></g><g fill="#ffffff" fill-opacity="1"><g transform="translate(239.396641, 470.271614)"><g><path d="M 32.421875 0 L 2.34375 0 L 20.53125 -93.6875 L 50.4375 -93.6875 Z M 53.6875 -108.09375 L 22.515625 -108.09375 L 27.203125 -132.234375 L 58.375 -132.234375 Z M 53.6875 -108.09375 "/></g></g></g><g fill="#ffffff" fill-opacity="1"><g transform="translate(285.31695, 470.271614)"><g><path d="M 75.671875 -96.015625 C 82.992188 -96.015625 89.75 -94.09375 95.9375 -90.25 C 102.125 -86.414062 107.046875 -81.164062 110.703125 -74.5 C 114.367188 -67.832031 116.203125 -60.472656 116.203125 -52.421875 C 116.203125 -42.691406 113.890625 -33.625 109.265625 -25.21875 C 104.640625 -16.8125 98.300781 -10.113281 90.25 -5.125 C 82.207031 -0.144531 73.320312 2.34375 63.59375 2.34375 C 56.382812 2.34375 50.285156 1.082031 45.296875 -1.4375 C 40.316406 -3.957031 36.390625 -7.203125 33.515625 -11.171875 L 31.34375 0 L 3.421875 0 L 28.46875 -129.71875 L 58.375 -129.71875 L 50.625 -88.09375 C 57.226562 -93.375 65.578125 -96.015625 75.671875 -96.015625 Z M 61.4375 -24.328125 C 66.476562 -24.328125 70.890625 -25.523438 74.671875 -27.921875 C 78.453125 -30.328125 81.332031 -33.507812 83.3125 -37.46875 C 85.300781 -41.4375 86.296875 -45.582031 86.296875 -49.90625 C 86.296875 -55.3125 84.375 -59.90625 80.53125 -63.6875 C 76.6875 -67.46875 71.757812 -69.359375 65.75 -69.359375 C 60.707031 -69.359375 56.320312 -68.125 52.59375 -65.65625 C 48.875 -63.195312 46.023438 -60.015625 44.046875 -56.109375 C 42.066406 -52.210938 41.078125 -48.101562 41.078125 -43.78125 C 41.078125 -38.375 43 -33.78125 46.84375 -30 C 50.6875 -26.21875 55.550781 -24.328125 61.4375 -24.328125 Z M 61.4375 -24.328125 "/></g></g></g><g fill="#ffffff" fill-opacity="1"><g transform="translate(399.673037, 470.271614)"><g><path d="M 71.875 -96.015625 C 78.488281 -96.015625 84.4375 -94.601562 89.71875 -91.78125 C 95 -88.96875 99.140625 -84.945312 102.140625 -79.71875 C 105.148438 -74.488281 106.65625 -68.332031 106.65625 -61.25 C 106.65625 -57.53125 106.351562 -54.226562 105.75 -51.34375 L 95.84375 0 L 65.75 0 L 75.3125 -49.546875 C 75.664062 -51.347656 75.84375 -53.03125 75.84375 -54.59375 C 75.84375 -59.03125 74.519531 -62.570312 71.875 -65.21875 C 69.238281 -67.863281 65.695312 -69.1875 61.25 -69.1875 C 56.207031 -69.1875 52.0625 -67.625 48.8125 -64.5 C 45.570312 -61.375 43.472656 -57.109375 42.515625 -51.703125 L 32.421875 0 L 2.34375 0 L 20.53125 -93.6875 L 48.28125 -93.6875 L 46.84375 -86.296875 C 55.007812 -92.773438 63.351562 -96.015625 71.875 -96.015625 Z M 71.875 -96.015625 "/></g></g></g><g fill="#ffffff" fill-opacity="1"><g transform="translate(508.085978, 470.271614)"><g><path d="M 90.078125 -93.6875 L 118 -93.6875 L 99.984375 0 L 72.421875 0 L 74.046875 -8.46875 C 66.835938 -1.257812 57.410156 2.34375 45.765625 2.34375 C 38.429688 2.34375 31.671875 0.421875 25.484375 -3.421875 C 19.304688 -7.265625 14.382812 -12.519531 10.71875 -19.1875 C 7.050781 -25.851562 5.21875 -33.207031 5.21875 -41.25 C 5.21875 -50.976562 7.53125 -60.046875 12.15625 -68.453125 C 16.78125 -76.859375 23.113281 -83.550781 31.15625 -88.53125 C 39.207031 -93.519531 48.097656 -96.015625 57.828125 -96.015625 C 65.035156 -96.015625 71.128906 -94.753906 76.109375 -92.234375 C 81.097656 -89.710938 85.035156 -86.472656 87.921875 -82.515625 Z M 55.671875 -24.328125 C 60.710938 -24.328125 65.09375 -25.554688 68.8125 -28.015625 C 72.539062 -30.472656 75.394531 -33.65625 77.375 -37.5625 C 79.351562 -41.46875 80.34375 -45.582031 80.34375 -49.90625 C 80.34375 -55.3125 78.421875 -59.90625 74.578125 -63.6875 C 70.734375 -67.46875 65.8125 -69.359375 59.8125 -69.359375 C 54.882812 -69.359375 50.53125 -68.15625 46.75 -65.75 C 42.96875 -63.351562 40.082031 -60.171875 38.09375 -56.203125 C 36.113281 -52.242188 35.125 -48.101562 35.125 -43.78125 C 35.125 -38.375 37.046875 -33.78125 40.890625 -30 C 44.734375 -26.21875 49.660156 -24.328125 55.671875 -24.328125 Z M 55.671875 -24.328125 "/></g></g></g><g fill="#ffffff" fill-opacity="1"><g transform="translate(621.361476, 470.271614)"><g><path d="M 52.421875 -67.203125 L 47.203125 -40.53125 C 46.960938 -39.09375 46.84375 -38.070312 46.84375 -37.46875 C 46.84375 -34.101562 47.984375 -31.457031 50.265625 -29.53125 C 52.546875 -27.613281 55.546875 -26.65625 59.265625 -26.65625 L 66.296875 -26.65625 L 61.078125 0 L 49.359375 0 C 38.671875 0 30.382812 -2.671875 24.5 -8.015625 C 18.613281 -13.359375 15.671875 -20.535156 15.671875 -29.546875 C 15.671875 -31.953125 15.972656 -34.773438 16.578125 -38.015625 L 22.34375 -67.203125 L 7.03125 -67.203125 L 12.25 -93.6875 L 27.5625 -93.6875 L 32.421875 -118.546875 L 62.515625 -118.546875 L 57.65625 -93.6875 L 79.265625 -93.6875 L 74.046875 -67.203125 Z M 52.421875 -67.203125 "/></g></g></g><g fill="#ffffff" fill-opacity="1"><g transform="translate(692.13481, 470.271614)"><g><path d="M 32.421875 0 L 2.34375 0 L 20.53125 -93.6875 L 50.4375 -93.6875 Z M 53.6875 -108.09375 L 22.515625 -108.09375 L 27.203125 -132.234375 L 58.375 -132.234375 Z M 53.6875 -108.09375 "/></g></g></g><g fill="#ffffff" fill-opacity="1"><g transform="translate(738.055141, 470.271614)"><g><path d="M 52.25 2.34375 C 43.957031 2.34375 36.175781 0.515625 28.90625 -3.140625 C 21.644531 -6.804688 15.820312 -12.003906 11.4375 -18.734375 C 7.050781 -25.460938 4.859375 -33.085938 4.859375 -41.609375 C 4.859375 -51.460938 7.289062 -60.5625 12.15625 -68.90625 C 17.019531 -77.257812 23.773438 -83.863281 32.421875 -88.71875 C 41.078125 -93.582031 50.804688 -96.015625 61.609375 -96.015625 C 70.140625 -96.015625 78.035156 -94.15625 85.296875 -90.4375 C 92.566406 -86.71875 98.363281 -81.492188 102.6875 -74.765625 C 107.007812 -68.035156 109.171875 -60.410156 109.171875 -51.890625 C 109.171875 -41.921875 106.707031 -32.789062 101.78125 -24.5 C 96.863281 -16.21875 90.078125 -9.671875 81.421875 -4.859375 C 72.773438 -0.0546875 63.050781 2.34375 52.25 2.34375 Z M 54.953125 -24.5 C 59.992188 -24.5 64.34375 -25.695312 68 -28.09375 C 71.664062 -30.5 74.488281 -33.65625 76.46875 -37.5625 C 78.457031 -41.46875 79.453125 -45.519531 79.453125 -49.71875 C 79.453125 -55.125 77.554688 -59.71875 73.765625 -63.5 C 69.984375 -67.289062 65.09375 -69.1875 59.09375 -69.1875 C 54.164062 -69.1875 49.835938 -67.984375 46.109375 -65.578125 C 42.390625 -63.171875 39.566406 -60.015625 37.640625 -56.109375 C 35.722656 -52.210938 34.765625 -48.101562 34.765625 -43.78125 C 34.765625 -38.375 36.65625 -33.804688 40.4375 -30.078125 C 44.226562 -26.359375 49.066406 -24.5 54.953125 -24.5 Z M 54.953125 -24.5 "/></g></g></g><g fill="#ffffff" fill-opacity="1"><g transform="translate(845.027316, 470.271614)"><g><path d="M 71.875 -96.015625 C 78.488281 -96.015625 84.4375 -94.601562 89.71875 -91.78125 C 95 -88.96875 99.140625 -84.945312 102.140625 -79.71875 C 105.148438 -74.488281 106.65625 -68.332031 106.65625 -61.25 C 106.65625 -57.53125 106.351562 -54.226562 105.75 -51.34375 L 95.84375 0 L 65.75 0 L 75.3125 -49.546875 C 75.664062 -51.347656 75.84375 -53.03125 75.84375 -54.59375 C 75.84375 -59.03125 74.519531 -62.570312 71.875 -65.21875 C 69.238281 -67.863281 65.695312 -69.1875 61.25 -69.1875 C 56.207031 -69.1875 52.0625 -67.625 48.8125 -64.5 C 45.570312 -61.375 43.472656 -57.109375 42.515625 -51.703125 L 32.421875 0 L 2.34375 0 L 20.53125 -93.6875 L 48.28125 -93.6875 L 46.84375 -86.296875 C 55.007812 -92.773438 63.351562 -96.015625 71.875 -96.015625 Z M 71.875 -96.015625 "/></g></g></g><g fill="#8dc641" fill-opacity="1"><g transform="translate(307.772847, 528.867543)"><g><path d="M 9.640625 -7.4375 L 0.484375 -23.890625 L 7.46875 -23.890625 L 12.78125 -14.203125 L 17.96875 -23.890625 L 24.984375 -23.890625 L 15.921875 -7.46875 L 15.921875 0 L 9.640625 0 Z M 9.640625 -7.4375 "/></g></g></g><g fill="#8dc641" fill-opacity="1"><g transform="translate(342.508412, 528.867543)"><g><path d="M 13.390625 0.25 C 9.222656 0.25 6.023438 -1.125 3.796875 -3.875 C 2.003906 -6.082031 1.109375 -8.695312 1.109375 -11.71875 C 1.109375 -14.925781 2.003906 -17.703125 3.796875 -20.046875 C 6.023438 -22.898438 9.222656 -24.328125 13.390625 -24.328125 C 17.523438 -24.328125 20.738281 -22.898438 23.03125 -20.046875 C 24.800781 -17.753906 25.6875 -14.976562 25.6875 -11.71875 C 25.6875 -8.664062 24.800781 -6.050781 23.03125 -3.875 C 20.738281 -1.125 17.523438 0.25 13.390625 0.25 Z M 9 -6.53125 C 10.070312 -5.226562 11.535156 -4.578125 13.390625 -4.578125 C 15.242188 -4.578125 16.707031 -5.226562 17.78125 -6.53125 C 18.851562 -7.84375 19.390625 -9.570312 19.390625 -11.71875 C 19.390625 -14 18.859375 -15.867188 17.796875 -17.328125 C 16.734375 -18.785156 15.265625 -19.515625 13.390625 -19.515625 C 11.515625 -19.515625 10.046875 -18.785156 8.984375 -17.328125 C 7.921875 -15.867188 7.390625 -14 7.390625 -11.71875 C 7.390625 -9.570312 7.925781 -7.84375 9 -6.53125 Z M 9 -6.53125 "/></g></g></g><g fill="#8dc641" fill-opacity="1"><g transform="translate(378.550008, 528.867543)"><g><path d="M 13.1875 0.25 C 9.050781 0.25 6.003906 -1.015625 4.046875 -3.546875 C 2.492188 -5.535156 1.71875 -8.054688 1.71875 -11.109375 L 1.71875 -23.890625 L 8 -23.890625 L 8 -10.984375 C 8 -6.710938 9.726562 -4.578125 13.1875 -4.578125 C 16.5625 -4.578125 18.25 -6.710938 18.25 -10.984375 L 18.25 -23.890625 L 24.703125 -23.890625 L 24.703125 -11.109375 C 24.703125 -8.023438 23.925781 -5.503906 22.375 -3.546875 C 20.363281 -1.015625 17.300781 0.25 13.1875 0.25 Z M 13.1875 0.25 "/></g></g></g><g fill="#8dc641" fill-opacity="1"><g transform="translate(414.224293, 528.867543)"><g><path d="M 22.625 -15.4375 C 22.625 -14.039062 22.257812 -12.660156 21.53125 -11.296875 C 20.8125 -9.941406 19.757812 -8.84375 18.375 -8 L 22.171875 0 L 15.234375 0 L 11.96875 -6.9375 L 8.203125 -6.9375 L 8.203125 0 L 1.921875 0 L 1.921875 -23.890625 L 13.03125 -23.890625 C 16.1875 -23.890625 18.570312 -23.078125 20.1875 -21.453125 C 21.8125 -19.835938 22.625 -17.832031 22.625 -15.4375 Z M 8.203125 -11.71875 L 12.734375 -11.71875 C 13.796875 -11.71875 14.664062 -12.050781 15.34375 -12.71875 C 16.03125 -13.382812 16.375 -14.273438 16.375 -15.390625 C 16.375 -16.503906 16.03125 -17.394531 15.34375 -18.0625 C 14.664062 -18.726562 13.796875 -19.0625 12.734375 -19.0625 L 8.203125 -19.0625 Z M 8.203125 -11.71875 "/></g></g></g><g fill="#8dc641" fill-opacity="1"><g transform="translate(463.982224, 528.867543)"><g><path d="M 19.265625 -12.328125 C 20.441406 -11.890625 21.332031 -11.179688 21.9375 -10.203125 C 22.550781 -9.222656 22.859375 -8.191406 22.859375 -7.109375 C 22.859375 -4.929688 22.019531 -3.203125 20.34375 -1.921875 C 18.675781 -0.640625 16.238281 0 13.03125 0 L 1.921875 0 L 1.921875 -23.890625 L 11.875 -23.890625 C 15.09375 -23.890625 17.535156 -23.238281 19.203125 -21.9375 C 20.878906 -20.644531 21.71875 -18.910156 21.71875 -16.734375 C 21.71875 -15.835938 21.515625 -14.945312 21.109375 -14.0625 C 20.703125 -13.175781 20.085938 -12.597656 19.265625 -12.328125 Z M 8.203125 -13.96875 L 11.875 -13.96875 C 14.21875 -13.96875 15.390625 -14.78125 15.390625 -16.40625 C 15.390625 -17.226562 15.066406 -17.875 14.421875 -18.34375 C 13.785156 -18.820312 12.9375 -19.0625 11.875 -19.0625 L 8.203125 -19.0625 Z M 13.0625 -4.8125 C 15.40625 -4.8125 16.578125 -5.628906 16.578125 -7.265625 C 16.578125 -8.109375 16.285156 -8.6875 15.703125 -9 C 15.117188 -9.3125 14.238281 -9.46875 13.0625 -9.46875 L 8.203125 -9.46875 L 8.203125 -4.8125 Z M 13.0625 -4.8125 "/></g></g></g><g fill="#8dc641" fill-opacity="1"><g transform="translate(496.799517, 528.867543)"><g><path d="M 13.390625 0.25 C 9.222656 0.25 6.023438 -1.125 3.796875 -3.875 C 2.003906 -6.082031 1.109375 -8.695312 1.109375 -11.71875 C 1.109375 -14.925781 2.003906 -17.703125 3.796875 -20.046875 C 6.023438 -22.898438 9.222656 -24.328125 13.390625 -24.328125 C 17.523438 -24.328125 20.738281 -22.898438 23.03125 -20.046875 C 24.800781 -17.753906 25.6875 -14.976562 25.6875 -11.71875 C 25.6875 -8.664062 24.800781 -6.050781 23.03125 -3.875 C 20.738281 -1.125 17.523438 0.25 13.390625 0.25 Z M 9 -6.53125 C 10.070312 -5.226562 11.535156 -4.578125 13.390625 -4.578125 C 15.242188 -4.578125 16.707031 -5.226562 17.78125 -6.53125 C 18.851562 -7.84375 19.390625 -9.570312 19.390625 -11.71875 C 19.390625 -14 18.859375 -15.867188 17.796875 -17.328125 C 16.734375 -18.785156 15.265625 -19.515625 13.390625 -19.515625 C 11.515625 -19.515625 10.046875 -18.785156 8.984375 -17.328125 C 7.921875 -15.867188 7.390625 -14 7.390625 -11.71875 C 7.390625 -9.570312 7.925781 -7.84375 9 -6.53125 Z M 9 -6.53125 "/></g></g></g><g fill="#8dc641" fill-opacity="1"><g transform="translate(532.841115, 528.867543)"><g><path d="M 13.390625 0.25 C 9.222656 0.25 6.023438 -1.125 3.796875 -3.875 C 2.003906 -6.082031 1.109375 -8.695312 1.109375 -11.71875 C 1.109375 -14.925781 2.003906 -17.703125 3.796875 -20.046875 C 6.023438 -22.898438 9.222656 -24.328125 13.390625 -24.328125 C 17.523438 -24.328125 20.738281 -22.898438 23.03125 -20.046875 C 24.800781 -17.753906 25.6875 -14.976562 25.6875 -11.71875 C 25.6875 -8.664062 24.800781 -6.050781 23.03125 -3.875 C 20.738281 -1.125 17.523438 0.25 13.390625 0.25 Z M 9 -6.53125 C 10.070312 -5.226562 11.535156 -4.578125 13.390625 -4.578125 C 15.242188 -4.578125 16.707031 -5.226562 17.78125 -6.53125 C 18.851562 -7.84375 19.390625 -9.570312 19.390625 -11.71875 C 19.390625 -14 18.859375 -15.867188 17.796875 -17.328125 C 16.734375 -18.785156 15.265625 -19.515625 13.390625 -19.515625 C 11.515625 -19.515625 10.046875 -18.785156 8.984375 -17.328125 C 7.921875 -15.867188 7.390625 -14 7.390625 -11.71875 C 7.390625 -9.570312 7.925781 -7.84375 9 -6.53125 Z M 9 -6.53125 "/></g></g></g><g fill="#8dc641" fill-opacity="1"><g transform="translate(568.882713, 528.867543)"><g><path d="M 12.734375 -11.109375 L 8.203125 -6.484375 L 8.203125 0 L 1.921875 0 L 1.921875 -23.890625 L 8.203125 -23.890625 L 8.203125 -14.734375 L 17.0625 -23.890625 L 24.984375 -23.890625 L 17.390625 -15.875 C 22.078125 -7.144531 24.910156 -1.851562 25.890625 0 L 18.78125 0 Z M 12.734375 -11.109375 "/></g></g></g><g fill="#8dc641" fill-opacity="1"><g transform="translate(604.312117, 528.867543)"><g/></g></g><g fill="#8dc641" fill-opacity="1"><g transform="translate(621.293567, 528.867543)"><g><path d="M 1.921875 -23.890625 L 8.203125 -23.890625 L 8.203125 -4.8125 L 19.921875 -4.8125 L 19.921875 0 L 1.921875 0 Z M 1.921875 -23.890625 "/></g></g></g><g fill="#8dc641" fill-opacity="1"><g transform="translate(651.376285, 528.867543)"><g><path d="M 1.953125 -23.890625 L 8.25 -23.890625 L 8.25 0 L 1.953125 0 Z M 1.953125 -23.890625 "/></g></g></g><g fill="#8dc641" fill-opacity="1"><g transform="translate(670.847373, 528.867543)"><g><path d="M 19.265625 -12.328125 C 20.441406 -11.890625 21.332031 -11.179688 21.9375 -10.203125 C 22.550781 -9.222656 22.859375 -8.191406 22.859375 -7.109375 C 22.859375 -4.929688 22.019531 -3.203125 20.34375 -1.921875 C 18.675781 -0.640625 16.238281 0 13.03125 0 L 1.921875 0 L 1.921875 -23.890625 L 11.875 -23.890625 C 15.09375 -23.890625 17.535156 -23.238281 19.203125 -21.9375 C 20.878906 -20.644531 21.71875 -18.910156 21.71875 -16.734375 C 21.71875 -15.835938 21.515625 -14.945312 21.109375 -14.0625 C 20.703125 -13.175781 20.085938 -12.597656 19.265625 -12.328125 Z M 8.203125 -13.96875 L 11.875 -13.96875 C 14.21875 -13.96875 15.390625 -14.78125 15.390625 -16.40625 C 15.390625 -17.226562 15.066406 -17.875 14.421875 -18.34375 C 13.785156 -18.820312 12.9375 -19.0625 11.875 -19.0625 L 8.203125 -19.0625 Z M 13.0625 -4.8125 C 15.40625 -4.8125 16.578125 -5.628906 16.578125 -7.265625 C 16.578125 -8.109375 16.285156 -8.6875 15.703125 -9 C 15.117188 -9.3125 14.238281 -9.46875 13.0625 -9.46875 L 8.203125 -9.46875 L 8.203125 -4.8125 Z M 13.0625 -4.8125 "/></g></g></g><g fill="#8dc641" fill-opacity="1"><g transform="translate(703.664676, 528.867543)"><g><path d="M 22.625 -15.4375 C 22.625 -14.039062 22.257812 -12.660156 21.53125 -11.296875 C 20.8125 -9.941406 19.757812 -8.84375 18.375 -8 L 22.171875 0 L 15.234375 0 L 11.96875 -6.9375 L 8.203125 -6.9375 L 8.203125 0 L 1.921875 0 L 1.921875 -23.890625 L 13.03125 -23.890625 C 16.1875 -23.890625 18.570312 -23.078125 20.1875 -21.453125 C 21.8125 -19.835938 22.625 -17.832031 22.625 -15.4375 Z M 8.203125 -11.71875 L 12.734375 -11.71875 C 13.796875 -11.71875 14.664062 -12.050781 15.34375 -12.71875 C 16.03125 -13.382812 16.375 -14.273438 16.375 -15.390625 C 16.375 -16.503906 16.03125 -17.394531 15.34375 -18.0625 C 14.664062 -18.726562 13.796875 -19.0625 12.734375 -19.0625 L 8.203125 -19.0625 Z M 8.203125 -11.71875 "/></g></g></g><g fill="#8dc641" fill-opacity="1"><g transform="translate(736.441157, 528.867543)"><g><path d="M 25.4375 0 L 18.78125 0 L 17.109375 -4.859375 L 8.609375 -4.859375 L 6.9375 0 L 0.28125 0 L 8.125 -23.890625 L 17.59375 -23.890625 Z M 16.046875 -9.796875 L 12.859375 -19.59375 L 9.671875 -9.796875 Z M 16.046875 -9.796875 "/></g></g></g><g fill="#8dc641" fill-opacity="1"><g transform="translate(771.421611, 528.867543)"><g><path d="M 22.625 -15.4375 C 22.625 -14.039062 22.257812 -12.660156 21.53125 -11.296875 C 20.8125 -9.941406 19.757812 -8.84375 18.375 -8 L 22.171875 0 L 15.234375 0 L 11.96875 -6.9375 L 8.203125 -6.9375 L 8.203125 0 L 1.921875 0 L 1.921875 -23.890625 L 13.03125 -23.890625 C 16.1875 -23.890625 18.570312 -23.078125 20.1875 -21.453125 C 21.8125 -19.835938 22.625 -17.832031 22.625 -15.4375 Z M 8.203125 -11.71875 L 12.734375 -11.71875 C 13.796875 -11.71875 14.664062 -12.050781 15.34375 -12.71875 C 16.03125 -13.382812 16.375 -14.273438 16.375 -15.390625 C 16.375 -16.503906 16.03125 -17.394531 15.34375 -18.0625 C 14.664062 -18.726562 13.796875 -19.0625 12.734375 -19.0625 L 8.203125 -19.0625 Z M 8.203125 -11.71875 "/></g></g></g><g fill="#8dc641" fill-opacity="1"><g transform="translate(804.198092, 528.867543)"><g><path d="M 9.640625 -7.4375 L 0.484375 -23.890625 L 7.46875 -23.890625 L 12.78125 -14.203125 L 17.96875 -23.890625 L 24.984375 -23.890625 L 15.921875 -7.46875 L 15.921875 0 L 9.640625 0 Z M 9.640625 -7.4375 "/></g></g></g><g fill="#8dc641" fill-opacity="1"><g transform="translate(838.93366, 528.867543)"><g/></g></g><g fill="#8dc641" fill-opacity="1"><g transform="translate(855.915109, 528.867543)"><g><path d="M 25.4375 0 L 18.78125 0 L 17.109375 -4.859375 L 8.609375 -4.859375 L 6.9375 0 L 0.28125 0 L 8.125 -23.890625 L 17.59375 -23.890625 Z M 16.046875 -9.796875 L 12.859375 -19.59375 L 9.671875 -9.796875 Z M 16.046875 -9.796875 "/></g></g></g><g fill="#8dc641" fill-opacity="1"><g transform="translate(890.895563, 528.867543)"><g><path d="M 1.921875 0 L 1.921875 -23.890625 L 12.78125 -23.890625 C 15.9375 -23.890625 18.363281 -23.070312 20.0625 -21.4375 C 21.769531 -19.800781 22.625 -17.796875 22.625 -15.421875 C 22.625 -13.054688 21.769531 -11.046875 20.0625 -9.390625 C 18.363281 -7.734375 15.9375 -6.90625 12.78125 -6.90625 L 8.203125 -6.90625 L 8.203125 0 Z M 8.203125 -11.71875 L 12.734375 -11.71875 C 13.796875 -11.71875 14.664062 -12.050781 15.34375 -12.71875 C 16.03125 -13.382812 16.375 -14.273438 16.375 -15.390625 C 16.375 -16.503906 16.03125 -17.394531 15.34375 -18.0625 C 14.664062 -18.726562 13.796875 -19.0625 12.734375 -19.0625 L 8.203125 -19.0625 Z M 8.203125 -11.71875 "/></g></g></g><g fill="#8dc641" fill-opacity="1"><g transform="translate(923.46798, 528.867543)"><g><path d="M 1.921875 0 L 1.921875 -23.890625 L 12.78125 -23.890625 C 15.9375 -23.890625 18.363281 -23.070312 20.0625 -21.4375 C 21.769531 -19.800781 22.625 -17.796875 22.625 -15.421875 C 22.625 -13.054688 21.769531 -11.046875 20.0625 -9.390625 C 18.363281 -7.734375 15.9375 -6.90625 12.78125 -6.90625 L 8.203125 -6.90625 L 8.203125 0 Z M 8.203125 -11.71875 L 12.734375 -11.71875 C 13.796875 -11.71875 14.664062 -12.050781 15.34375 -12.71875 C 16.03125 -13.382812 16.375 -14.273438 16.375 -15.390625 C 16.375 -16.503906 16.03125 -17.394531 15.34375 -18.0625 C 14.664062 -18.726562 13.796875 -19.0625 12.734375 -19.0625 L 8.203125 -19.0625 Z M 8.203125 -11.71875 "/></g></g></g></svg>